<?xml version="1.0" encoding="UTF-8"?>
<svg id="Capa_1" data-name="Capa 1" xmlns="http://www.w3.org/2000/svg" xmlns:xlink="http://www.w3.org/1999/xlink" viewBox="0 0 1025.22 1024.08">
  <defs>
    <style>
      .cls-1 {
        fill: #1d1d1b;
      }

      .cls-2 {
        fill: #fff;
      }

      .cls-3 {
        opacity: .13;
      }

      .cls-4 {
        opacity: .44;
      }
    </style>
  </defs>
  <image class="cls-4" width="1024" height="1024" transform="translate(1.22)" xlink:href="../Marca/bord.png"/>
  <path class="cls-1" d="M191.8,195.21C217.27,101.52,291.41,29.1,384.61,7.24c134.77-31.61,234.1,60.16,241.21,66.96,7.4-1.88,147.49-34.83,251.9,67.97,106.45,104.82,72.38,248.92,70.79,255.12,10.94,11.72,88.62,97.78,71.8,218.22-14.1,100.95-89.04,186.21-191.6,218.22-26.24,91.96-100.07,162.63-192.4,183.93-137.72,31.77-237.55-64.52-243.63-70.59-22.05,5.78-56.28,11.82-97.21,6.86-115.12-13.96-178.33-102.2-183.53-109.71-66.96-96.77-40.66-200.8-36.71-215.39-14.37-14.15-34.54-37.25-50.42-70.18-40.45-83.87-20.47-163.78-15.33-182.32,4.94-17.8,29.57-99.23,109.71-150.05,28.03-17.77,54.5-26.5,72.61-31.06Z"/>
  <image class="cls-3" width="1024" height="1024" transform="translate(1.22)" xlink:href="../Marca/eyes.png"/>
  <path class="cls-2" d="M241.41,509.23c1.08-8.08,4.3-23.78,15.53-39.73,9.67-13.73,21.04-21.62,27.83-25.61,7.88-4.35,17.28-8.44,28.19-11.25,45.53-11.73,85.22,7.07,99.68,14.88,8.67,4.94,21.8,13.82,33.88,28.64,13.61,16.69,19.74,33.34,22.59,43.36,3,10.55,2.04,18.49,1.82,21.18-.11,1.29-.86,10.46-3.23,15.13-5.81,11.48-30.76,14.5-60.3,7.66-6.06-1.31-12.45-2.47-19.16-3.43-17.82-2.54-34.19-3.1-48.61-2.62-15.33.74-30.66,1.48-45.98,2.22-17.78,2.41-35.09-4.52-44.77-18.15-9.6-13.51-8-28.4-7.46-32.27Z"/>
  <path class="cls-2" d="M782.41,513.41c-1.08-8.08-4.3-23.78-15.53-39.73-9.67-13.73-21.04-21.62-27.83-25.61-7.88-4.35-17.28-8.44-28.19-11.25-45.53-11.73-85.22,7.07-99.68,14.88-8.67,4.94-21.8,13.82-33.88,28.64-13.61,16.69-19.74,33.34-22.59,43.36-3,10.55-2.04,18.49-1.82,21.18.11,1.29.86,10.46,3.23,15.13,5.81,11.48,30.76,14.5,60.3,7.66,6.06-1.31,12.45-2.47,19.16-3.43,17.82-2.54,34.19-3.1,48.61-2.62,15.33.74,30.66,1.48,45.98,2.22,17.78,2.41,35.09-4.52,44.77-18.15,9.6-13.51,8-28.4,7.46-32.27Z"/>
</svg>