<?xml version="1.0" encoding="UTF-8"?>
<svg id="Capa_1" data-name="Capa 1" xmlns="http://www.w3.org/2000/svg" viewBox="0 0 1080 1080">
  <defs>
    <style>
      .cls-1 {
        fill: #1d1d1b;
      }

      .cls-2 {
        fill: #fff;
      }
    </style>
  </defs>
  <circle class="cls-2" cx="540" cy="540" r="540"/>
  <path class="cls-1" d="M348.88,350.31c15.23-56.04,59.58-99.35,115.32-112.43,80.61-18.91,140.02,35.98,144.27,40.05,4.43-1.12,88.22-20.83,150.66,40.65,63.67,62.69,43.29,148.89,42.34,152.59,6.54,7.01,53.01,58.48,42.94,130.52-8.43,60.38-53.26,111.38-114.6,130.52-15.7,55-59.85,97.27-115.08,110.01-82.37,19-142.09-38.59-145.72-42.22-13.19,3.46-33.66,7.07-58.14,4.1-68.86-8.35-106.66-61.13-109.77-65.62-40.05-57.88-24.32-120.1-21.95-128.83-8.59-8.46-20.66-22.28-30.16-41.98-24.2-50.16-12.25-97.96-9.17-109.05,2.95-10.64,17.68-59.35,65.62-89.75,16.76-10.63,32.6-15.85,43.43-18.58Z"/>
  <path class="cls-2" d="M378.55,538.13c.65-4.83,2.57-14.22,9.29-23.76,5.79-8.22,12.58-12.93,16.65-15.32,4.71-2.6,10.34-5.05,16.86-6.73,27.23-7.01,50.97,4.23,59.62,8.9,5.19,2.95,13.04,8.27,20.27,17.13,8.14,9.98,11.81,19.94,13.51,25.94,1.79,6.31,1.22,11.06,1.09,12.67-.06.77-.52,6.25-1.93,9.05-3.47,6.87-18.4,8.67-36.07,4.58-3.62-.78-7.45-1.48-11.46-2.05-10.66-1.52-20.45-1.86-29.07-1.57-9.17.44-18.34.88-27.5,1.33-10.63,1.44-20.99-2.7-26.78-10.86-5.74-8.08-4.78-16.99-4.46-19.3Z"/>
  <path class="cls-2" d="M702.13,540.63c-.65-4.83-2.57-14.22-9.29-23.76-5.79-8.22-12.58-12.93-16.65-15.32-4.71-2.6-10.34-5.05-16.86-6.73-27.23-7.01-50.97,4.23-59.62,8.9-5.19,2.95-13.04,8.27-20.27,17.13-8.14,9.98-11.81,19.94-13.51,25.94-1.79,6.31-1.22,11.06-1.09,12.67.06.77.52,6.25,1.93,9.05,3.47,6.87,18.4,8.67,36.07,4.58,3.62-.78,7.45-1.48,11.46-2.05,10.66-1.52,20.45-1.86,29.07-1.57,9.17.44,18.34.88,27.5,1.33,10.63,1.44,20.99-2.7,26.78-10.86,5.74-8.08,4.78-16.99,4.46-19.3Z"/>
</svg>